<svg width="19" height="17" viewBox="0 0 19 17" fill="none" xmlns="http://www.w3.org/2000/svg">
<path d="M0.325048 7.68284L4.56543 9.26548L6.20671 14.5438C6.31173 14.8819 6.72512 15.0069 6.99951 14.7825L9.36316 12.8556C9.61093 12.6537 9.96383 12.6437 10.2228 12.8316L14.486 15.9268C14.7795 16.1402 15.1953 15.9793 15.2689 15.6246L18.392 0.602353C18.4723 0.214912 18.0916 -0.108303 17.7227 0.0343804L0.320079 6.74779C-0.109381 6.91342 -0.105639 7.52145 0.325048 7.68284ZM5.9422 8.423L14.2295 3.31886C14.3784 3.22739 14.5317 3.42878 14.4038 3.54742L7.56435 9.90498C7.32395 10.1288 7.16887 10.4282 7.12495 10.7533L6.89197 12.4798C6.86112 12.7104 6.53729 12.7333 6.47368 12.5101L5.57764 9.36173C5.47502 9.00263 5.62457 8.61905 5.9422 8.423Z" fill="#456AE7"/>
</svg>
