<svg width="20" height="20" viewBox="0 0 20 20" fill="none" xmlns="http://www.w3.org/2000/svg">
<path d="M15.4375 3.24902C14.9895 3.24902 14.625 3.61357 14.625 4.06152C14.625 4.50948 14.9895 4.87402 15.4375 4.87402C15.8855 4.87402 16.25 4.50954 16.25 4.06152C16.25 3.6135 15.8855 3.24902 15.4375 3.24902Z" fill="#A111FF"/>
<path d="M9.75389 6.50098C7.96185 6.50098 6.50391 7.95892 6.50391 9.75096C6.50391 11.543 7.96185 13.001 9.75389 13.001C11.546 13.001 13.0039 11.543 13.0039 9.75099C13.0039 7.95895 11.546 6.50098 9.75389 6.50098Z" fill="#A111FF"/>
<path d="M14.1544 0H5.34563C2.39804 0 0 2.39804 0 5.34567V14.1544C0 17.102 2.39804 19.5 5.34563 19.5H14.1544C17.102 19.5 19.5 17.102 19.5 14.1544V5.34567C19.5 2.39804 17.102 0 14.1544 0ZM9.75 15.0985C6.80082 15.0985 4.40155 12.6992 4.40155 9.75C4.40155 6.80082 6.80085 4.40159 9.75 4.40159C12.6991 4.40159 15.0985 6.80085 15.0985 9.75C15.0985 12.6991 12.6991 15.0985 9.75 15.0985ZM15.4184 5.70664C14.5224 5.70664 13.7934 4.97768 13.7934 4.08167C13.7934 3.18566 14.5224 2.45666 15.4184 2.45666C16.3144 2.45666 17.0433 3.18562 17.0433 4.08163C17.0433 4.97764 16.3144 5.70664 15.4184 5.70664Z" fill="#A111FF"/>
</svg>
