<svg width="16" height="16" viewBox="0 0 16 16" fill="none" xmlns="http://www.w3.org/2000/svg">
<path d="M3.053 11.233V16H0.05V1.825H6.455C7.897 1.825 9.094 2.273 10.046 3.169C11.012 4.065 11.495 5.185 11.495 6.529C11.495 7.859 11.012 8.979 10.046 9.889C9.094 10.785 7.897 11.233 6.455 11.233H3.053ZM6.455 4.597H3.053V8.482H6.455C7.001 8.482 7.456 8.3 7.82 7.936C8.198 7.558 8.387 7.089 8.387 6.529C8.387 5.969 8.198 5.507 7.82 5.143C7.456 4.779 7.001 4.597 6.455 4.597ZM15.653 16H12.923V0.774999H15.653V16Z" fill="#389FFE"/>
</svg>
