<svg width="38" height="10" viewBox="0 0 38 10" fill="none" xmlns="http://www.w3.org/2000/svg">
<path d="M4.576 9.13477H3.055L0.104 0.359765H2.002L3.796 6.15777L5.538 0.359765H7.059L8.814 6.14477L10.595 0.359765H12.493L9.542 9.13477H8.021L6.305 3.58377L4.576 9.13477ZM17.1571 9.13477H15.6361L12.6851 0.359765H14.5831L16.3771 6.15777L18.1191 0.359765H19.6401L21.3951 6.14477L23.1761 0.359765H25.0741L22.1231 9.13477H20.6021L18.8861 3.58377L17.1571 9.13477ZM29.7381 9.13477H28.2171L25.2661 0.359765H27.1641L28.9581 6.15777L30.7001 0.359765H32.2211L33.9761 6.14477L35.7571 0.359765H37.6551L34.7041 9.13477H33.1831L31.4671 3.58377L29.7381 9.13477Z" fill="#389FFE"/>
</svg>
