<svg width="1654" height="333" viewBox="0 0 1654 333" fill="none" xmlns="http://www.w3.org/2000/svg">
<path d="M1381.28 29.2467C1381.28 29.2467 1482.56 27.4774 1596.38 3.81162L1640.91 0.507594L1653.85 174.839L775.578 295.463C775.578 295.463 239.897 385.955 62.2029 283.197C29.6817 264.391 -28.3711 173.695 16.2251 125.962C60.8212 78.2291 162.174 81.0548 267.063 87.4925C394.153 95.2928 404.552 103.212 501.071 96.6957C622.59 88.4921 722.187 45.8223 812.251 32.084C894.525 19.534 927.268 53.4567 1006.01 41.8687C1084.75 30.2808 1172.07 25.9191 1208.12 26.8735C1244.16 27.828 1381.28 29.2467 1381.28 29.2467Z" fill="#04002F"/>
<path d="M1381.28 29.2467C1381.28 29.2467 1482.56 27.4774 1596.38 3.81162L1640.91 0.507594L1653.85 174.839L775.578 295.463C775.578 295.463 239.897 385.955 62.2029 283.197C29.6817 264.391 -28.3711 173.695 16.2251 125.962C60.8212 78.2291 162.174 81.0548 267.063 87.4925C394.153 95.2928 404.552 103.212 501.071 96.6957C622.59 88.4921 722.187 45.8223 812.251 32.084C894.525 19.534 927.268 53.4567 1006.01 41.8687C1084.75 30.2808 1172.07 25.9191 1208.12 26.8735C1244.16 27.828 1381.28 29.2467 1381.28 29.2467Z" fill="url(#paint0_linear_82_20793)"/>
<defs>
<linearGradient id="paint0_linear_82_20793" x1="817.267" y1="30.9427" x2="891.212" y2="488.109" gradientUnits="userSpaceOnUse">
<stop stop-color="#040114"/>
<stop offset="0.123946" stop-color="#080435"/>
<stop offset="0.453633" stop-color="#130F3D"/>
<stop offset="1" stop-opacity="0"/>
</linearGradient>
</defs>
</svg>
