<svg width="1920" height="895" viewBox="0 0 1920 895" fill="none" xmlns="http://www.w3.org/2000/svg">
<mask id="mask0_804_28" style="mask-type:alpha" maskUnits="userSpaceOnUse" x="0" y="0" width="1920" height="895">
<rect width="1920" height="895" fill="#C4C4C4"/>
</mask>
<g mask="url(#mask0_804_28)">
<path d="M3746.97 -27.3883C3746.97 -27.3883 4052.31 -32.7224 4395.45 -104.068L4529.7 -114.028L4568.69 411.529L1920.96 775.175C1920.96 775.175 306.041 1047.98 -229.655 738.199C-327.697 681.504 -502.71 408.08 -368.265 264.18C-233.82 120.279 71.728 128.798 387.939 148.206C771.077 171.722 802.428 195.595 1093.4 175.951C1459.75 151.219 1760 22.5823 2031.52 -18.8348C2279.56 -56.6692 2378.27 45.5977 2615.65 10.6634C2853.04 -24.271 3116.27 -37.42 3224.94 -34.5428C3333.61 -31.6655 3746.97 -27.3883 3746.97 -27.3883Z" fill="url(#paint0_linear_804_28)"/>
</g>
<defs>
<linearGradient id="paint0_linear_804_28" x1="2046.64" y1="-22.2754" x2="2269.57" y2="1355.95" gradientUnits="userSpaceOnUse">
<stop stop-color="#040114"/>
<stop offset="0.123946" stop-color="#080435"/>
<stop offset="0.453633" stop-color="#130F3D"/>
<stop offset="1" stop-opacity="0"/>
</linearGradient>
</defs>
</svg>
